<svg xmlns="http://www.w3.org/2000/svg" xmlns:xlink="http://www.w3.org/1999/xlink" width="1080" zoomAndPan="magnify" viewBox="0 0 810 809.999993" height="1080" preserveAspectRatio="xMidYMid meet" version="1.0"><defs><clipPath id="9ac72a2115"><path d="M 13.3125 431 L 363.792969 431 L 363.792969 628.402344 L 13.3125 628.402344 Z M 13.3125 431 " clip-rule="nonzero"/></clipPath><clipPath id="6b93a89ce1"><path d="M 444.738281 431 L 796.648438 431 L 796.648438 628.402344 L 444.738281 628.402344 Z M 444.738281 431 " clip-rule="nonzero"/></clipPath><clipPath id="556bf54fa0"><path d="M 288 181.554688 L 520 181.554688 L 520 532 L 288 532 Z M 288 181.554688 " clip-rule="nonzero"/></clipPath></defs><g clip-path="url(#9ac72a2115)"><path fill="#881337" d="M 257.726562 606.480469 C 248.414062 606.480469 239.160156 606.035156 230.007812 605.078125 C 214.707031 603.476562 199.71875 600.417969 185.320312 595.941406 C 170.933594 591.394531 157.171875 585.316406 144.347656 577.699219 C 131.503906 570.117188 119.113281 560.945312 107.542969 551.183594 C 96.054688 541.238281 85.078125 530.632812 75.140625 519.082031 C 70.074219 513.398438 65.292969 507.472656 60.707031 501.4375 L 55.535156 494.265625 C 56.253906 493.703125 56.945312 493.121094 57.675781 492.554688 C 62.140625 489.125 66.8125 485.890625 71.625 482.886719 C 81.277344 476.910156 91.457031 471.765625 102.023438 467.667969 C 120.007812 460.761719 139.160156 456.9375 158.585938 456.9375 C 159.878906 456.9375 161.183594 457.03125 162.480469 457.066406 C 158.746094 449.785156 155.269531 442.054688 152.234375 433.90625 C 151.976562 433.210938 151.757812 432.582031 151.515625 431.910156 C 149.042969 431.800781 146.574219 431.625 144.097656 431.625 C 126.585938 431.621094 108.992188 434.347656 92.296875 439.6875 C 79.488281 443.691406 67.160156 449.089844 55.519531 455.691406 C 49.6875 458.976562 44.011719 462.539062 38.496094 466.398438 C 35.738281 468.335938 33.046875 470.378906 30.371094 472.507812 C 29.035156 473.582031 27.707031 474.664062 26.375 475.804688 L 24.367188 477.558594 C 23.648438 478.207031 23.113281 478.679688 22.132812 479.632812 L 13.3125 488.164062 L 19.335938 499.203125 C 20.652344 501.617188 21.675781 503.308594 22.839844 505.265625 L 26.3125 510.792969 C 28.636719 514.4375 31.105469 517.941406 33.609375 521.414062 C 38.695312 528.28125 43.980469 534.976562 49.570312 541.398438 C 60.824219 554.175781 73.039062 566.144531 86.441406 576.738281 C 99.796875 587.476562 114.125 596.625 129.457031 604.757812 C 144.917969 612.640625 161.234375 618.914062 178.050781 622.660156 C 194.828125 626.566406 211.933594 628.320312 228.859375 628.40625 C 245.800781 628.320312 262.566406 626.542969 278.898438 623.273438 C 287.074219 621.65625 295.113281 619.550781 303.066406 617.300781 C 310.984375 614.894531 318.800781 612.277344 326.453125 609.253906 C 339.320312 604.164062 351.828125 598.265625 363.640625 591.277344 L 360.054688 590.507812 C 332.515625 598.84375 304.476562 604.097656 276.578125 605.890625 C 270.28125 606.277344 263.988281 606.480469 257.726562 606.480469 " fill-opacity="1" fill-rule="nonzero"/></g><path fill="#040606" d="M 370.25 587.292969 C 368.542969 587.859375 366.824219 588.371094 365.113281 588.914062 L 366.449219 589.582031 C 367.710938 588.8125 369.007812 588.09375 370.25 587.292969 " fill-opacity="1" fill-rule="nonzero"/><path fill="#040606" d="M 162.222656 444.890625 C 160.355469 440.695312 158.625 436.433594 157.019531 432.121094 C 158.625 436.433594 160.355469 440.695312 162.222656 444.890625 " fill-opacity="1" fill-rule="nonzero"/><path fill="#a2104b" d="M 256.859375 527.175781 C 245.109375 516.792969 234.199219 505.648438 224.503906 493.710938 C 216.703125 484.09375 209.761719 473.9375 203.675781 463.386719 C 202.203125 460.835938 200.738281 458.28125 199.375 455.6875 C 196.457031 450.074219 193.875 444.328125 191.515625 438.511719 C 188.242188 430.457031 185.449219 422.234375 183.320312 413.851562 C 179.601562 399.414062 177.335938 384.179688 176.066406 369.109375 C 174.980469 353.960938 174.730469 338.707031 175.878906 323.523438 C 176.320312 315.925781 177.136719 308.359375 178.164062 300.851562 L 179.582031 292.128906 C 180.492188 292.238281 181.394531 292.3125 182.308594 292.429688 C 187.894531 293.160156 193.488281 294.171875 199.015625 295.445312 C 210.074219 298.039062 220.914062 301.589844 231.289062 306.15625 C 251.992188 315.351562 270.828125 328.679688 285.898438 346.011719 C 287.160156 347.429688 288.335938 348.929688 289.539062 350.402344 C 290.46875 347.488281 291.480469 344.511719 292.679688 341.359375 C 294.726562 335.992188 297.089844 330.5625 299.585938 325.132812 C 284.777344 306.285156 265.664062 290.53125 244.21875 279.496094 C 232.328125 273.285156 219.789062 268.394531 206.882812 264.839844 C 200.433594 263.046875 193.898438 261.558594 187.265625 260.386719 C 183.941406 259.808594 180.589844 259.355469 177.195312 258.972656 C 175.488281 258.789062 173.785156 258.613281 172.039062 258.480469 L 169.375 258.304688 C 168.402344 258.253906 167.691406 258.210938 166.328125 258.1875 L 154.050781 257.996094 L 150.492188 270.054688 C 149.714844 272.691406 149.238281 274.609375 148.679688 276.8125 L 147.21875 283.175781 C 146.285156 287.394531 145.546875 291.613281 144.863281 295.839844 C 143.597656 304.289062 142.59375 312.753906 141.996094 321.242188 C 140.910156 338.226562 141.078125 355.316406 143.050781 372.273438 C 144.894531 389.296875 148.546875 405.886719 153.632812 422.464844 C 154.121094 423.96875 154.683594 425.453125 155.203125 426.949219 C 155.507812 427.8125 155.800781 428.679688 156.109375 429.539062 C 156.425781 430.394531 156.699219 431.269531 157.019531 432.121094 C 158.625 436.433594 160.355469 440.695312 162.222656 444.890625 C 164.089844 449.085938 166.097656 453.210938 168.246094 457.253906 C 168.726562 458.160156 169.292969 459.011719 169.789062 459.910156 C 170.285156 460.8125 170.824219 461.683594 171.332031 462.574219 C 172.652344 464.871094 173.898438 467.214844 175.320312 469.445312 C 184.417969 484.058594 195.269531 497.378906 207.179688 509.394531 C 219.21875 521.296875 232.335938 531.878906 246.199219 541.105469 C 253.117188 545.734375 260.296875 549.925781 267.515625 553.949219 C 274.816406 557.839844 282.199219 561.507812 289.75 564.777344 C 304.832031 571.296875 320.335938 576.765625 336.265625 580.179688 C 307.253906 565.660156 280.457031 547.886719 256.859375 527.175781 " fill-opacity="1" fill-rule="nonzero"/><path fill="#040606" d="M 366.449219 589.582031 L 365.113281 588.914062 C 363.429688 589.445312 361.742188 589.996094 360.054688 590.507812 L 363.640625 591.277344 C 364.582031 590.71875 365.519531 590.15625 366.449219 589.582031 " fill-opacity="1" fill-rule="nonzero"/><g clip-path="url(#6b93a89ce1)"><path fill="#881337" d="M 646.882812 457.058594 C 648.191406 457.027344 649.503906 456.933594 650.808594 456.933594 C 670.3125 456.933594 689.539062 460.753906 707.59375 467.660156 C 718.199219 471.761719 728.421875 476.910156 738.113281 482.882812 C 742.941406 485.886719 747.632812 489.121094 752.117188 492.554688 C 752.847656 493.113281 753.542969 493.699219 754.265625 494.265625 L 749.070312 501.433594 C 744.46875 507.46875 739.667969 513.394531 734.582031 519.078125 C 724.609375 530.625 713.585938 541.234375 702.050781 551.179688 C 690.4375 560.9375 678 570.113281 665.105469 577.691406 C 652.230469 585.316406 638.414062 591.386719 623.972656 595.933594 C 609.519531 600.414062 594.472656 603.472656 579.109375 605.074219 C 569.925781 606.027344 560.632812 606.472656 551.285156 606.472656 C 544.996094 606.472656 538.679688 606.273438 532.355469 605.886719 C 504.351562 604.089844 476.199219 598.835938 448.554688 590.503906 L 444.957031 591.273438 C 456.816406 598.257812 469.367188 604.160156 482.285156 609.246094 C 489.964844 612.269531 497.816406 614.886719 505.765625 617.292969 C 513.75 619.546875 521.820312 621.652344 530.023438 623.269531 C 546.421875 626.535156 563.253906 628.316406 580.261719 628.402344 C 597.257812 628.316406 614.429688 626.558594 631.269531 622.65625 C 648.152344 618.910156 664.535156 612.632812 680.050781 604.753906 C 695.445312 596.617188 709.832031 587.472656 723.238281 576.738281 C 736.6875 566.140625 748.957031 554.171875 760.253906 541.398438 C 765.867188 534.96875 771.167969 528.277344 776.273438 521.40625 C 778.789062 517.9375 781.269531 514.433594 783.605469 510.789062 L 787.085938 505.261719 C 788.257812 503.308594 789.28125 501.613281 790.605469 499.195312 L 796.648438 488.160156 L 787.796875 479.625 C 786.808594 478.671875 786.277344 478.203125 785.550781 477.554688 L 783.539062 475.800781 C 782.199219 474.65625 780.867188 473.578125 779.527344 472.5 C 776.839844 470.375 774.140625 468.332031 771.371094 466.394531 C 765.832031 462.535156 760.132812 458.972656 754.28125 455.683594 C 742.59375 449.082031 730.21875 443.6875 717.359375 439.683594 C 700.601562 434.34375 682.933594 431.617188 665.355469 431.617188 C 662.859375 431.617188 660.378906 431.796875 657.894531 431.90625 C 657.648438 432.582031 657.425781 433.207031 657.167969 433.90625 C 654.117188 442.054688 650.632812 449.78125 646.882812 457.058594 " fill-opacity="1" fill-rule="nonzero"/></g><path fill="#040606" d="M 438.320312 587.289062 C 439.566406 588.089844 440.871094 588.808594 442.136719 589.578125 L 443.480469 588.910156 C 441.761719 588.367188 440.035156 587.855469 438.320312 587.289062 " fill-opacity="1" fill-rule="nonzero"/><path fill="#a2104b" d="M 667.464844 321.238281 C 666.863281 312.746094 665.859375 304.285156 664.585938 295.835938 C 663.898438 291.609375 663.15625 287.390625 662.222656 283.171875 L 660.753906 276.808594 C 660.195312 274.601562 659.714844 272.6875 658.933594 270.046875 L 655.363281 257.992188 L 643.039062 258.183594 C 641.667969 258.203125 640.953125 258.246094 639.980469 258.296875 L 637.308594 258.476562 C 635.550781 258.609375 633.839844 258.78125 632.128906 258.964844 C 628.71875 259.351562 625.355469 259.804688 622.023438 260.386719 C 615.359375 261.550781 608.800781 263.039062 602.324219 264.832031 C 589.367188 268.386719 576.785156 273.277344 564.84375 279.492188 C 543.160156 290.605469 523.851562 306.496094 508.945312 325.519531 C 509.125 325.914062 509.3125 326.296875 509.492188 326.6875 C 512 332.238281 513.964844 336.902344 515.671875 341.375 C 516.84375 344.449219 517.90625 347.667969 518.925781 350.90625 C 520.261719 349.253906 521.589844 347.589844 523 346.007812 C 538.128906 328.675781 557.039062 315.34375 577.824219 306.148438 C 588.234375 301.582031 599.121094 298.03125 610.21875 295.441406 C 615.773438 294.164062 621.386719 293.15625 626.996094 292.425781 C 627.914062 292.308594 628.816406 292.234375 629.730469 292.125 L 631.152344 300.847656 C 632.1875 308.355469 633.003906 315.921875 633.449219 323.515625 C 634.605469 338.699219 634.351562 353.957031 633.261719 369.105469 C 631.984375 384.171875 629.710938 399.410156 625.976562 413.84375 C 623.839844 422.230469 621.035156 430.449219 617.753906 438.503906 C 615.378906 444.328125 612.789062 450.070312 609.863281 455.679688 C 608.492188 458.277344 607.019531 460.832031 605.542969 463.382812 C 599.433594 473.929688 592.464844 484.089844 584.632812 493.703125 C 574.902344 505.644531 563.949219 516.785156 552.152344 527.171875 C 528.464844 547.882812 501.5625 565.65625 472.4375 580.175781 C 488.429688 576.757812 503.992188 571.292969 519.132812 564.769531 C 526.714844 561.507812 534.128906 557.832031 541.457031 553.941406 C 548.703125 549.921875 555.90625 545.730469 562.855469 541.101562 C 576.773438 531.875 589.941406 521.292969 602.027344 509.386719 C 613.984375 497.371094 624.878906 484.050781 634.007812 469.441406 C 635.433594 467.207031 636.691406 464.867188 638.011719 462.570312 C 638.523438 461.679688 639.066406 460.804688 639.566406 459.90625 C 640.0625 459.011719 640.628906 458.15625 641.113281 457.25 C 645.425781 449.160156 649.160156 440.742188 652.382812 432.117188 C 652.707031 431.261719 652.984375 430.390625 653.292969 429.53125 C 653.605469 428.671875 653.898438 427.804688 654.203125 426.941406 C 654.730469 425.445312 655.292969 423.96875 655.78125 422.460938 C 660.886719 405.882812 664.558594 389.292969 666.410156 372.269531 C 668.390625 355.316406 668.554688 338.222656 667.464844 321.238281 " fill-opacity="1" fill-rule="nonzero"/><path fill="#040606" d="M 443.480469 588.910156 L 442.136719 589.578125 C 443.070312 590.152344 444.011719 590.714844 444.957031 591.273438 L 448.554688 590.503906 C 446.859375 589.996094 445.171875 589.445312 443.480469 588.910156 " fill-opacity="1" fill-rule="nonzero"/><g clip-path="url(#556bf54fa0)"><path fill="#881337" d="M 519.433594 382.425781 L 519.03125 375.867188 C 518.941406 374.410156 518.703125 372.785156 518.476562 371.175781 L 518.160156 368.894531 C 517.773438 366.609375 517.292969 364.261719 516.71875 361.855469 C 516.113281 359.304688 515.402344 356.679688 514.570312 353.945312 C 513.457031 350.277344 512.222656 346.660156 510.902344 343.191406 C 509.230469 338.824219 507.304688 334.246094 504.839844 328.789062 C 504.234375 327.449219 503.59375 326.144531 502.976562 324.8125 C 502.183594 323.097656 501.40625 321.359375 500.570312 319.675781 C 494.082031 306.589844 486.378906 293.167969 475.589844 276.144531 C 467.476562 263.566406 458.226562 250.214844 447.320312 235.347656 C 436.429688 220.828125 426.640625 208.421875 416.535156 196.3125 L 404.214844 181.558594 L 391.859375 196.316406 C 382.019531 208.066406 372.226562 220.46875 361.050781 235.355469 C 350.742188 249.335938 341.480469 262.691406 332.753906 276.144531 C 322.085938 292.96875 314.375 306.398438 307.773438 319.660156 C 306.988281 321.242188 306.300781 322.832031 305.546875 324.421875 C 305.136719 325.289062 304.730469 326.160156 304.328125 327.03125 C 301.84375 332.4375 299.488281 337.84375 297.449219 343.179688 C 295.375 348.636719 293.796875 353.527344 292.539062 358.222656 C 292.257812 359.273438 291.992188 360.316406 291.746094 361.355469 C 291.136719 363.910156 290.589844 366.445312 290.167969 368.980469 L 289.863281 371.175781 C 289.632812 372.785156 289.398438 374.410156 289.308594 375.867188 L 288.902344 382.472656 C 288.785156 383.953125 288.78125 385.378906 288.773438 386.808594 L 288.742188 390.304688 C 288.722656 391.988281 288.703125 393.667969 288.824219 395.347656 C 289.046875 403.203125 289.945312 411.382812 291.65625 421.21875 C 294.875 438.027344 300.398438 454.230469 308.0625 469.335938 C 315.5 484.117188 324.796875 498.078125 335.699219 510.839844 C 340.972656 516.960938 346.699219 522.96875 352.703125 528.707031 C 353.824219 529.730469 355.035156 530.828125 356.316406 531.960938 C 340.933594 510.078125 329.300781 487.257812 321.652344 463.90625 C 319.265625 456.773438 317.261719 449.160156 315.703125 441.308594 C 314.03125 432.894531 313.019531 425.414062 312.609375 418.453125 C 312.042969 409.554688 312.03125 402.316406 312.5625 395.683594 L 312.789062 393.4375 C 313.035156 390.445312 313.296875 387.453125 313.679688 384.480469 L 314.507812 378.9375 C 314.683594 377.761719 314.914062 376.75 315.144531 375.75 C 315.277344 375.160156 315.410156 374.578125 315.527344 373.960938 C 316.519531 370.109375 317.804688 366.152344 319.496094 361.703125 C 322.8125 353.027344 327.359375 343.589844 333.40625 332.871094 C 340.78125 319.851562 349.269531 306.449219 358.632812 293.007812 C 367.195312 280.527344 376.664062 267.542969 386.765625 254.445312 C 391.808594 247.824219 396.992188 241.171875 402.226562 234.617188 L 404.214844 232.132812 L 406.214844 234.617188 C 407.335938 236.015625 408.4375 237.433594 409.535156 238.855469 L 413.917969 244.445312 C 416.539062 247.78125 419.164062 251.117188 421.710938 254.46875 C 432.578125 268.625 441.773438 281.253906 449.820312 293.058594 C 459.308594 306.675781 467.796875 320.085938 475.023438 332.886719 C 484.027344 348.835938 489.863281 362.226562 492.855469 373.8125 C 493.011719 374.582031 493.144531 375.167969 493.28125 375.75 C 493.507812 376.753906 493.738281 377.769531 493.914062 378.945312 L 494.738281 384.433594 C 495.238281 388.199219 495.582031 391.949219 495.855469 395.707031 C 496.394531 402.3125 496.382812 409.550781 495.816406 418.453125 C 494.761719 433.597656 491.726562 448.882812 486.78125 463.898438 C 479.164062 487.164062 467.585938 509.921875 452.289062 531.761719 C 453.5 530.679688 454.644531 529.636719 455.714844 528.65625 C 461.652344 522.984375 467.371094 516.96875 472.679688 510.8125 C 483.546875 498.085938 492.835938 484.128906 500.285156 469.328125 C 507.949219 454.214844 513.46875 438.015625 516.695312 421.175781 C 518.398438 411.378906 519.292969 403.199219 519.503906 395.46875 C 519.667969 391.664062 519.648438 387.652344 519.433594 382.425781 " fill-opacity="1" fill-rule="nonzero"/></g></svg>